<svg id="Laag_1" data-name="Laag 1" xmlns="http://www.w3.org/2000/svg" viewBox="0 0 900 506"><title>overlay-v2</title><path d="M.5-.5v506h900V-.5ZM147.83,191.37H99.25V320H52.82V191.37H4V150.89H147.83ZM287.6,320H242.36V249.47q0-9.28-4.17-13.45a14.05,14.05,0,0,0-10.35-4.17,13.16,13.16,0,0,0-5.12,1.31,30.31,30.31,0,0,0-6,3.57,31.18,31.18,0,0,0-5.59,5.6,30.72,30.72,0,0,0-4.29,7.38V320H161.64V146.13h45.24v67.15a43.78,43.78,0,0,1,17.38-15.6,53.07,53.07,0,0,1,24.05-5.36q13.1,0,21,4.53a32.11,32.11,0,0,1,11.91,11.31,40,40,0,0,1,5.23,14.64,98,98,0,0,1,1.19,14.77Zm67.15,0H309.51V194.7h45.24Zm0-135.73H309.51v-38.1h45.24ZM477.86,298.05a36.61,36.61,0,0,1-10.36,13.1,47,47,0,0,1-16.43,8.33,76.48,76.48,0,0,1-21.79,2.86A99,99,0,0,1,397.14,317a72.78,72.78,0,0,1-26.67-15.6L386,274.24a118.61,118.61,0,0,0,22.5,12.14q10.83,4.29,19.88,4.29,9.53,0,9.53-6c0-2.22-1.24-4.12-3.69-5.71s-7.27-3.41-14.41-5.48a212.65,212.65,0,0,1-22.27-7.5A64.31,64.31,0,0,1,383,258a25.39,25.39,0,0,1-8-9.52,29.66,29.66,0,0,1-2.38-12.38,40.83,40.83,0,0,1,3.81-17.62A42.61,42.61,0,0,1,387,204.47a47.44,47.44,0,0,1,16.19-9.17,63.39,63.39,0,0,1,20.6-3.22,95.37,95.37,0,0,1,26.31,3.58q12.5,3.57,25.12,14.52L458.1,237.33a123.51,123.51,0,0,0-19.53-10.84,39.16,39.16,0,0,0-14.76-3.21,13,13,0,0,0-6.67,1.55,5.25,5.25,0,0,0-2.62,4.88c0,2.38,1.27,4.33,3.81,5.83s7.54,3.22,15,5.12a171.37,171.37,0,0,1,22.86,7.5,60,60,0,0,1,14.88,8.57,26.89,26.89,0,0,1,8,10.48,35.38,35.38,0,0,1,2.38,13.46A40.5,40.5,0,0,1,477.86,298.05ZM595.73,320H550.49V194.7h45.24Zm0-135.73H550.49v-38.1h45.24ZM718.84,298.05a36.72,36.72,0,0,1-10.36,13.1,47.13,47.13,0,0,1-16.43,8.33,76.48,76.48,0,0,1-21.79,2.86A99.08,99.08,0,0,1,638.11,317a72.86,72.86,0,0,1-26.67-15.6l15.48-27.14a119.22,119.22,0,0,0,22.5,12.14q10.85,4.29,19.89,4.29,9.53,0,9.52-6,0-3.33-3.69-5.71t-14.4-5.48a211.06,211.06,0,0,1-22.27-7.5A64.09,64.09,0,0,1,624,258a25.21,25.21,0,0,1-8-9.52,29.66,29.66,0,0,1-2.38-12.38,40.83,40.83,0,0,1,3.81-17.62A42.58,42.58,0,0,1,628,204.47a47.49,47.49,0,0,1,16.2-9.17,63.37,63.37,0,0,1,20.59-3.22,95.45,95.45,0,0,1,26.32,3.58q12.49,3.57,25.12,14.52l-17.15,27.15a123.48,123.48,0,0,0-19.52-10.84,39.16,39.16,0,0,0-14.77-3.21,12.92,12.92,0,0,0-6.66,1.55,5.25,5.25,0,0,0-2.62,4.88c0,2.38,1.27,4.33,3.81,5.83s7.54,3.22,15,5.12a171.37,171.37,0,0,1,22.86,7.5,60,60,0,0,1,14.88,8.57,26.89,26.89,0,0,1,8,10.48,35.57,35.57,0,0,1,2.38,13.46A40.5,40.5,0,0,1,718.84,298.05ZM775,320H738.36V276.14H775Zm60.49,0H798.85V276.14h36.67ZM896,320H859.33V276.14H896Z" transform="translate(-0.5 0.5)"/></svg>