<svg id="Laag_1" data-name="Laag 1" xmlns="http://www.w3.org/2000/svg" viewBox="0 0 900 600"><title>overlay</title><path d="M-.5.5v600h900V.5ZM116.58,374.05q-3.48.54-11,1.34a144,144,0,0,1-15.22.8q-17.35,0-26.83-5.07A26.4,26.4,0,0,1,50.63,356.3q-3.48-9.75-3.47-23.63V248.83h-15V220.26h15v-47H91.21v47H113.1v28.57H91.21v79.56q0,6.69,3.87,9.62a15.65,15.65,0,0,0,9.75,2.93,47.19,47.19,0,0,0,6.41-.4q2.92-.39,5.34-.66Zm130.29.54H203.62V259.78c0-3.74-.63-6.59-1.87-8.55s-3.57-2.94-6.95-2.94a18.23,18.23,0,0,0-6.4,1.47,41.17,41.17,0,0,0-7.75,4.14V374.59H137.4V158.32h43.25v75.56a55.6,55.6,0,0,1,17.89-12.42,51.84,51.84,0,0,1,20-3.87q9.35,0,15.62,4.67a28.66,28.66,0,0,1,9.48,12.82,50.48,50.48,0,0,1,3.2,18.55Zm69.95,0H273.3V220.26h43.52Zm0-180.5H273V163.92h43.79ZM431.9,358.17a41.67,41.67,0,0,1-17.49,14.28,56.31,56.31,0,0,1-23.1,4.81q-20.3,0-33.77-9.08t-22-29.64l29.64-13.08q4.26,10.41,10,16.42t12.68,6q5.07,0,7.61-2.14a7.26,7.26,0,0,0,2.54-5.87,16.18,16.18,0,0,0-4.68-11.22q-4.67-5.07-16.68-15l-11.22-9.34a118.14,118.14,0,0,1-19.35-20.16Q339,274.46,339,260a38.46,38.46,0,0,1,6.54-22.16A44,44,0,0,1,363,222.93a52.89,52.89,0,0,1,23.5-5.34q18.94,0,31.77,10.41t17.89,29.37l-28,12.82A50.53,50.53,0,0,0,403.59,260a31.78,31.78,0,0,0-7.07-8.54,13.68,13.68,0,0,0-8.95-3.47,9.49,9.49,0,0,0-6.8,2.4,8.38,8.38,0,0,0-2.54,6.41q0,5.07,5.74,11a197.94,197.94,0,0,0,15.89,14.15l10.94,9.61q6.68,5.61,13.09,12a60.08,60.08,0,0,1,10.54,14.15,36.83,36.83,0,0,1,4.14,17.63Q438.57,348.69,431.9,358.17Zm137.23,16.42H525.61V220.26h43.52Zm0-180.5H525.34V163.92h43.79ZM684.21,358.17a41.61,41.61,0,0,1-17.49,14.28,56.31,56.31,0,0,1-23.1,4.81q-20.28,0-33.77-9.08t-22-29.64l29.64-13.08q4.26,10.41,10,16.42t12.68,6q5.07,0,7.61-2.14a7.26,7.26,0,0,0,2.54-5.87,16.21,16.21,0,0,0-4.67-11.22q-4.68-5.07-16.69-15l-11.21-9.34a118.24,118.24,0,0,1-19.36-20.16q-7.08-9.75-7.08-24.17a38.46,38.46,0,0,1,6.54-22.16,44,44,0,0,1,17.49-14.95,52.89,52.89,0,0,1,23.5-5.34q19,0,31.77,10.41t17.89,29.37l-28,12.82A51.68,51.68,0,0,0,655.91,260a31.81,31.81,0,0,0-7.08-8.54,13.67,13.67,0,0,0-8.94-3.47,9.5,9.5,0,0,0-6.81,2.4,8.38,8.38,0,0,0-2.54,6.41q0,5.07,5.74,11a197.94,197.94,0,0,0,15.89,14.15l11,9.61q6.66,5.61,13.08,12a60.39,60.39,0,0,1,10.55,14.15,36.94,36.94,0,0,1,4.13,17.63Q690.88,348.69,684.21,358.17Zm64.88,16.42H708V333.47h41.12Zm65.14,0H773.12V333.47h41.11Zm65.15,0H838.26V333.47h41.12Z" transform="translate(0.5 -0.5)"/></svg>