<svg id="Laag_1" data-name="Laag 1" xmlns="http://www.w3.org/2000/svg" viewBox="0 0 900 506"><title>overlay</title><path d="M0,0V506H900V0ZM147.29,207.3H99.35V334.2H53.52V207.3H5.35v-40H147.29ZM285.23,334.2H240.58V264.64q0-9.17-4.11-13.28a13.88,13.88,0,0,0-10.22-4.11,12.93,12.93,0,0,0-5.05,1.29,29.28,29.28,0,0,0-5.88,3.53,30.66,30.66,0,0,0-5.52,5.52,30.14,30.14,0,0,0-4.23,7.29V334.2H160.92V162.65h44.65v66.27a43.2,43.2,0,0,1,17.15-15.39,52.27,52.27,0,0,1,23.74-5.29q12.91,0,20.68,4.47a31.65,31.65,0,0,1,11.75,11.16,39.63,39.63,0,0,1,5.17,14.45,98,98,0,0,1,1.17,14.57Zm66.27,0H306.85V210.59H351.5Zm0-133.95H306.85v-37.6H351.5ZM473,312.58a36.15,36.15,0,0,1-10.22,12.93,46.57,46.57,0,0,1-16.21,8.22,75.74,75.74,0,0,1-21.51,2.82,97.52,97.52,0,0,1-31.72-5.29A71.76,71.76,0,0,1,367,315.87l15.27-26.79a117.61,117.61,0,0,0,22.21,12,53.79,53.79,0,0,0,19.62,4.23q9.4,0,9.4-5.88,0-3.29-3.64-5.64t-14.22-5.4a209.84,209.84,0,0,1-22-7.41,63.29,63.29,0,0,1-14.33-7.87,25,25,0,0,1-7.88-9.4,29.4,29.4,0,0,1-2.35-12.22,40.45,40.45,0,0,1,3.76-17.39,42.23,42.23,0,0,1,10.46-13.86,46.83,46.83,0,0,1,16-9A62.36,62.36,0,0,1,419.65,208a94.16,94.16,0,0,1,26,3.52q12.33,3.53,24.79,14.34l-16.92,26.79A121.38,121.38,0,0,0,434.22,242a38.7,38.7,0,0,0-14.57-3.17,12.74,12.74,0,0,0-6.58,1.53,5.18,5.18,0,0,0-2.59,4.82c0,2.35,1.26,4.27,3.76,5.75s7.44,3.18,14.81,5.06a168.81,168.81,0,0,1,22.56,7.4,58.91,58.91,0,0,1,14.69,8.46,26.46,26.46,0,0,1,7.87,10.34,35.05,35.05,0,0,1,2.35,13.28A39.94,39.94,0,0,1,473,312.58ZM589.32,334.2H544.67V210.59h44.65Zm0-133.95H544.67v-37.6h44.65ZM710.81,312.58a36.26,36.26,0,0,1-10.22,12.93,46.62,46.62,0,0,1-16.22,8.22,75.62,75.62,0,0,1-21.5,2.82,97.58,97.58,0,0,1-31.73-5.29,71.72,71.72,0,0,1-26.31-15.39l15.27-26.79a117.31,117.31,0,0,0,22.21,12,53.7,53.7,0,0,0,19.62,4.23q9.39,0,9.4-5.88c0-2.19-1.22-4.07-3.64-5.64s-7.17-3.37-14.22-5.4a208.24,208.24,0,0,1-22-7.41,63.16,63.16,0,0,1-14.34-7.87,25,25,0,0,1-7.87-9.4,29.25,29.25,0,0,1-2.35-12.22,40.31,40.31,0,0,1,3.76-17.39,42,42,0,0,1,10.46-13.86,46.74,46.74,0,0,1,16-9A62.3,62.3,0,0,1,657.46,208a94.05,94.05,0,0,1,26,3.52q12.35,3.53,24.79,14.34L691.3,252.66A120.92,120.92,0,0,0,672,242a38.74,38.74,0,0,0-14.58-3.17,12.79,12.79,0,0,0-6.58,1.53,5.19,5.19,0,0,0-2.58,4.82q0,3.53,3.76,5.75t14.8,5.06a168.81,168.81,0,0,1,22.56,7.4,58.54,58.54,0,0,1,14.69,8.46A26.36,26.36,0,0,1,712,282.15a34.86,34.86,0,0,1,2.35,13.28A39.94,39.94,0,0,1,710.81,312.58Zm55.46,21.62H730.08V291h36.19Zm59.69,0H789.77V291H826Zm59.69,0H849.46V291h36.19Z"/></svg>